<?xml version="1.0" encoding="UTF-8" standalone="no"?>
<!DOCTYPE svg PUBLIC "-//W3C//DTD SVG 1.1//EN"
 "http://www.w3.org/Graphics/SVG/1.1/DTD/svg11.dtd">
<!-- Generated by graphviz version 7.1.0 (20230121.1956)
 -->
<!-- Title: dependency&#45;cruiser output Pages: 1 -->
<svg width="523pt" height="668pt"
 viewBox="0.00 0.00 523.00 668.00" xmlns="http://www.w3.org/2000/svg" xmlns:xlink="http://www.w3.org/1999/xlink">
<g id="graph0" class="graph" transform="scale(1 1) rotate(0) translate(4 664)">
<title>dependency&#45;cruiser output</title>
<polygon fill="white" stroke="none" points="-4,4 -4,-664 519,-664 519,4 -4,4"/>
<g id="clust1" class="cluster">
<title>cluster_@</title>
<path fill="#ffffff" stroke="black" stroke-width="2" d="M390.5,-8C390.5,-8 454.5,-8 454.5,-8 460.5,-8 466.5,-14 466.5,-20 466.5,-20 466.5,-198 466.5,-198 466.5,-204 460.5,-210 454.5,-210 454.5,-210 390.5,-210 390.5,-210 384.5,-210 378.5,-204 378.5,-198 378.5,-198 378.5,-20 378.5,-20 378.5,-14 384.5,-8 390.5,-8"/>
<text text-anchor="middle" x="422.5" y="-198.8" font-family="Helvetica,sans-Serif" font-weight="bold" font-size="9.00">@</text>
</g>
<g id="clust2" class="cluster">
<title>cluster_@/components</title>
<path fill="#ffffff" stroke="black" stroke-width="2" d="M399.5,-132C399.5,-132 445.5,-132 445.5,-132 451.5,-132 457.5,-138 457.5,-144 457.5,-144 457.5,-172 457.5,-172 457.5,-178 451.5,-184 445.5,-184 445.5,-184 399.5,-184 399.5,-184 393.5,-184 387.5,-178 387.5,-172 387.5,-172 387.5,-144 387.5,-144 387.5,-138 393.5,-132 399.5,-132"/>
<text text-anchor="middle" x="422.5" y="-172.8" font-family="Helvetica,sans-Serif" font-weight="bold" font-size="9.00">components</text>
</g>
<g id="clust3" class="cluster">
<title>cluster_@/schema</title>
<path fill="#ffffff" stroke="black" stroke-width="2" d="M398.5,-42C398.5,-42 446.5,-42 446.5,-42 452.5,-42 458.5,-48 458.5,-54 458.5,-54 458.5,-112 458.5,-112 458.5,-118 452.5,-124 446.5,-124 446.5,-124 398.5,-124 398.5,-124 392.5,-124 386.5,-118 386.5,-112 386.5,-112 386.5,-54 386.5,-54 386.5,-48 392.5,-42 398.5,-42"/>
<text text-anchor="middle" x="422.5" y="-112.8" font-family="Helvetica,sans-Serif" font-weight="bold" font-size="9.00">schema</text>
</g>
<g id="clust4" class="cluster">
<title>cluster_src</title>
<path fill="#ffffff" stroke="black" stroke-width="2" d="M20,-218C20,-218 495,-218 495,-218 501,-218 507,-224 507,-230 507,-230 507,-640 507,-640 507,-646 501,-652 495,-652 495,-652 20,-652 20,-652 14,-652 8,-646 8,-640 8,-640 8,-230 8,-230 8,-224 14,-218 20,-218"/>
<text text-anchor="middle" x="257.5" y="-640.8" font-family="Helvetica,sans-Serif" font-weight="bold" font-size="9.00">src</text>
</g>
<g id="clust5" class="cluster">
<title>cluster_src/components</title>
<path fill="#ffffff" stroke="black" stroke-width="2" d="M157,-252C157,-252 487,-252 487,-252 493,-252 499,-258 499,-264 499,-264 499,-472 499,-472 499,-478 493,-484 487,-484 487,-484 157,-484 157,-484 151,-484 145,-478 145,-472 145,-472 145,-264 145,-264 145,-258 151,-252 157,-252"/>
<text text-anchor="middle" x="322" y="-472.8" font-family="Helvetica,sans-Serif" font-weight="bold" font-size="9.00">components</text>
</g>
<g id="clust7" class="cluster">
<title>cluster_src/components/header</title>
<path fill="#ffffff" stroke="black" stroke-width="2" d="M183.5,-346C183.5,-346 479,-346 479,-346 485,-346 491,-352 491,-358 491,-358 491,-446 491,-446 491,-452 485,-458 479,-458 479,-458 183.5,-458 183.5,-458 177.5,-458 171.5,-452 171.5,-446 171.5,-446 171.5,-358 171.5,-358 171.5,-352 177.5,-346 183.5,-346"/>
<text text-anchor="middle" x="331.25" y="-446.8" font-family="Helvetica,sans-Serif" font-weight="bold" font-size="9.00">header</text>
</g>
<g id="clust8" class="cluster">
<title>cluster_src/components/header/register&#45;login</title>
<path fill="#ffffff" stroke="black" stroke-width="2" d="M277,-354C277,-354 471,-354 471,-354 477,-354 483,-360 483,-366 483,-366 483,-394 483,-394 483,-400 477,-406 471,-406 471,-406 277,-406 277,-406 271,-406 265,-400 265,-394 265,-394 265,-366 265,-366 265,-360 271,-354 277,-354"/>
<text text-anchor="middle" x="374" y="-394.8" font-family="Helvetica,sans-Serif" font-weight="bold" font-size="9.00">register&#45;login</text>
</g>
<g id="clust6" class="cluster">
<title>cluster_src/components/books&#45;container</title>
<path fill="#ffffff" stroke="black" stroke-width="2" d="M165,-286C165,-286 346.5,-286 346.5,-286 352.5,-286 358.5,-292 358.5,-298 358.5,-298 358.5,-326 358.5,-326 358.5,-332 352.5,-338 346.5,-338 346.5,-338 165,-338 165,-338 159,-338 153,-332 153,-326 153,-326 153,-298 153,-298 153,-292 159,-286 165,-286"/>
<text text-anchor="middle" x="255.75" y="-326.8" font-family="Helvetica,sans-Serif" font-weight="bold" font-size="9.00">books&#45;container</text>
</g>
<g id="clust9" class="cluster">
<title>cluster_src/schema</title>
<path fill="#ffffff" stroke="black" stroke-width="2" d="M180.5,-518C180.5,-518 237.5,-518 237.5,-518 243.5,-518 249.5,-524 249.5,-530 249.5,-530 249.5,-588 249.5,-588 249.5,-594 243.5,-600 237.5,-600 237.5,-600 180.5,-600 180.5,-600 174.5,-600 168.5,-594 168.5,-588 168.5,-588 168.5,-530 168.5,-530 168.5,-524 174.5,-518 180.5,-518"/>
<text text-anchor="middle" x="209" y="-588.8" font-family="Helvetica,sans-Serif" font-weight="bold" font-size="9.00">schema</text>
</g>
<!-- @/components/error -->
<g id="node1" class="node">
<title>@/components/error</title>
<g id="a_node1"><a xlink:title="error">
<path fill="#ffffcc" stroke="red" d="M443.5,-158C443.5,-158 401.5,-158 401.5,-158 398.5,-158 395.5,-155 395.5,-152 395.5,-152 395.5,-146 395.5,-146 395.5,-143 398.5,-140 401.5,-140 401.5,-140 443.5,-140 443.5,-140 446.5,-140 449.5,-143 449.5,-146 449.5,-146 449.5,-152 449.5,-152 449.5,-155 446.5,-158 443.5,-158"/>
<text text-anchor="start" x="412.5" y="-146.8" font-family="Helvetica,sans-Serif" font-size="9.00" fill="red">error</text>
</a>
</g>
</g>
<!-- @/context -->
<g id="node2" class="node">
<title>@/context</title>
<g id="a_node2"><a xlink:title="context">
<path fill="#ffffcc" stroke="red" d="M443.5,-34C443.5,-34 401.5,-34 401.5,-34 398.5,-34 395.5,-31 395.5,-28 395.5,-28 395.5,-22 395.5,-22 395.5,-19 398.5,-16 401.5,-16 401.5,-16 443.5,-16 443.5,-16 446.5,-16 449.5,-19 449.5,-22 449.5,-22 449.5,-28 449.5,-28 449.5,-31 446.5,-34 443.5,-34"/>
<text text-anchor="start" x="407.5" y="-22.8" font-family="Helvetica,sans-Serif" font-size="9.00" fill="red">context</text>
</a>
</g>
</g>
<!-- @/schema/mutations -->
<g id="node3" class="node">
<title>@/schema/mutations</title>
<g id="a_node3"><a xlink:title="mutations">
<path fill="#ffffcc" stroke="red" d="M444.5,-98C444.5,-98 400.5,-98 400.5,-98 397.5,-98 394.5,-95 394.5,-92 394.5,-92 394.5,-86 394.5,-86 394.5,-83 397.5,-80 400.5,-80 400.5,-80 444.5,-80 444.5,-80 447.5,-80 450.5,-83 450.5,-86 450.5,-86 450.5,-92 450.5,-92 450.5,-95 447.5,-98 444.5,-98"/>
<text text-anchor="start" x="402.5" y="-86.8" font-family="Helvetica,sans-Serif" font-size="9.00" fill="red">mutations</text>
</a>
</g>
</g>
<!-- @/schema/queries -->
<g id="node4" class="node">
<title>@/schema/queries</title>
<g id="a_node4"><a xlink:title="queries">
<path fill="#ffffcc" stroke="red" d="M443.5,-68C443.5,-68 401.5,-68 401.5,-68 398.5,-68 395.5,-65 395.5,-62 395.5,-62 395.5,-56 395.5,-56 395.5,-53 398.5,-50 401.5,-50 401.5,-50 443.5,-50 443.5,-50 446.5,-50 449.5,-53 449.5,-56 449.5,-56 449.5,-62 449.5,-62 449.5,-65 446.5,-68 443.5,-68"/>
<text text-anchor="start" x="407" y="-56.8" font-family="Helvetica,sans-Serif" font-size="9.00" fill="red">queries</text>
</a>
</g>
</g>
<!-- src/api.js -->
<g id="node5" class="node">
<title>src/api.js</title>
<g id="a_node5"><a xlink:href="src/api.js" xlink:title="api.js">
<path fill="#ffffcc" stroke="black" d="M230,-244C230,-244 188,-244 188,-244 185,-244 182,-241 182,-238 182,-238 182,-232 182,-232 182,-229 185,-226 188,-226 188,-226 230,-226 230,-226 233,-226 236,-229 236,-232 236,-232 236,-238 236,-238 236,-241 233,-244 230,-244"/>
<text text-anchor="start" x="198" y="-232.8" font-family="Helvetica,sans-Serif" font-size="9.00">api.js</text>
</a>
</g>
</g>
<!-- src/app.jsx -->
<g id="node6" class="node">
<title>src/app.jsx</title>
<g id="a_node6"><a xlink:href="src/app.jsx" xlink:title="app.jsx">
<path fill="#ffff77" stroke="black" d="M131,-458C131,-458 89,-458 89,-458 86,-458 83,-455 83,-452 83,-452 83,-446 83,-446 83,-443 86,-440 89,-440 89,-440 131,-440 131,-440 134,-440 137,-443 137,-446 137,-446 137,-452 137,-452 137,-455 134,-458 131,-458"/>
<text text-anchor="start" x="95" y="-446.8" font-family="Helvetica,sans-Serif" font-size="9.00">app.jsx</text>
</a>
</g>
</g>
<!-- src/app.jsx&#45;&gt;src/api.js -->
<g id="edge1" class="edge">
<title>src/app.jsx&#45;&gt;src/api.js</title>
<path fill="none" stroke="#000000" stroke-width="2" stroke-opacity="0.200000" d="M111.24,-439.91C112.38,-404.6 118.3,-277.07 145,-249 152.23,-241.4 162.59,-237.49 172.83,-235.58"/>
<polygon fill="#000000" fill-opacity="0.200000" stroke="#000000" stroke-width="2" stroke-opacity="0.200000" points="173.05,-237.67 178.71,-234.78 172.49,-233.51 173.05,-237.67"/>
</g>
<!-- src/components/books&#45;container/books&#45;container.jsx -->
<g id="node7" class="node">
<title>src/components/books&#45;container/books&#45;container.jsx</title>
<g id="a_node7"><a xlink:href="src/components/books-container/books-container.jsx" xlink:title="books&#45;container.jsx">
<path fill="#ffff77" stroke="black" d="M251,-312C251,-312 167,-312 167,-312 164,-312 161,-309 161,-306 161,-306 161,-300 161,-300 161,-297 164,-294 167,-294 167,-294 251,-294 251,-294 254,-294 257,-297 257,-300 257,-300 257,-306 257,-306 257,-309 254,-312 251,-312"/>
<text text-anchor="start" x="169" y="-300.8" font-family="Helvetica,sans-Serif" font-size="9.00">books&#45;container.jsx</text>
</a>
</g>
</g>
<!-- src/app.jsx&#45;&gt;src/components/books&#45;container/books&#45;container.jsx -->
<g id="edge2" class="edge">
<title>src/app.jsx&#45;&gt;src/components/books&#45;container/books&#45;container.jsx</title>
<path fill="none" stroke="#000000" stroke-width="2" stroke-opacity="0.200000" d="M111.88,-439.51C114.14,-419.66 121.72,-373.13 145,-343 153.56,-331.92 166.12,-323.07 177.77,-316.54"/>
<polygon fill="#000000" fill-opacity="0.200000" stroke="#000000" stroke-width="2" stroke-opacity="0.200000" points="178.64,-318.45 182.96,-313.8 176.68,-314.74 178.64,-318.45"/>
</g>
<!-- src/components/header/header.jsx -->
<g id="node8" class="node">
<title>src/components/header/header.jsx</title>
<g id="a_node8"><a xlink:href="src/components/header/header.jsx" xlink:title="header.jsx">
<path fill="#ffff77" stroke="black" d="M232.5,-406C232.5,-406 185.5,-406 185.5,-406 182.5,-406 179.5,-403 179.5,-400 179.5,-400 179.5,-394 179.5,-394 179.5,-391 182.5,-388 185.5,-388 185.5,-388 232.5,-388 232.5,-388 235.5,-388 238.5,-391 238.5,-394 238.5,-394 238.5,-400 238.5,-400 238.5,-403 235.5,-406 232.5,-406"/>
<text text-anchor="start" x="187.5" y="-394.8" font-family="Helvetica,sans-Serif" font-size="9.00">header.jsx</text>
</a>
</g>
</g>
<!-- src/app.jsx&#45;&gt;src/components/header/header.jsx -->
<g id="edge3" class="edge">
<title>src/app.jsx&#45;&gt;src/components/header/header.jsx</title>
<path fill="none" stroke="#000000" stroke-width="2" stroke-opacity="0.200000" d="M116.52,-439.72C122.41,-430.67 132.59,-417.25 145,-410 152.74,-405.48 161.82,-402.52 170.63,-400.58"/>
<polygon fill="#000000" fill-opacity="0.200000" stroke="#000000" stroke-width="2" stroke-opacity="0.200000" points="170.82,-402.68 176.33,-399.52 170.04,-398.55 170.82,-402.68"/>
</g>
<!-- src/context.js -->
<g id="node9" class="node">
<title>src/context.js</title>
<g id="a_node9"><a xlink:href="src/context.js" xlink:title="context.js">
<path fill="#ffffcc" stroke="black" d="M230.5,-510C230.5,-510 187.5,-510 187.5,-510 184.5,-510 181.5,-507 181.5,-504 181.5,-504 181.5,-498 181.5,-498 181.5,-495 184.5,-492 187.5,-492 187.5,-492 230.5,-492 230.5,-492 233.5,-492 236.5,-495 236.5,-498 236.5,-498 236.5,-504 236.5,-504 236.5,-507 233.5,-510 230.5,-510"/>
<text text-anchor="start" x="189.5" y="-498.8" font-family="Helvetica,sans-Serif" font-size="9.00">context.js</text>
</a>
</g>
</g>
<!-- src/app.jsx&#45;&gt;src/context.js -->
<g id="edge4" class="edge">
<title>src/app.jsx&#45;&gt;src/context.js</title>
<path fill="none" stroke="#000000" stroke-width="2" stroke-opacity="0.200000" d="M128.34,-458.3C143.42,-466.38 165.47,-478.2 182.55,-487.36"/>
<polygon fill="#000000" fill-opacity="0.200000" stroke="#000000" stroke-width="2" stroke-opacity="0.200000" points="181.53,-489.19 187.81,-490.18 183.52,-485.49 181.53,-489.19"/>
</g>
<!-- src/schema/queries.js -->
<g id="node10" class="node">
<title>src/schema/queries.js</title>
<g id="a_node10"><a xlink:href="src/schema/queries.js" xlink:title="queries.js">
<path fill="#ffffcc" stroke="black" d="M231,-574C231,-574 187,-574 187,-574 184,-574 181,-571 181,-568 181,-568 181,-562 181,-562 181,-559 184,-556 187,-556 187,-556 231,-556 231,-556 234,-556 237,-559 237,-562 237,-562 237,-568 237,-568 237,-571 234,-574 231,-574"/>
<text text-anchor="start" x="189" y="-562.8" font-family="Helvetica,sans-Serif" font-size="9.00">queries.js</text>
</a>
</g>
</g>
<!-- src/app.jsx&#45;&gt;src/schema/queries.js -->
<g id="edge5" class="edge">
<title>src/app.jsx&#45;&gt;src/schema/queries.js</title>
<path fill="none" stroke="#000000" stroke-width="2" stroke-opacity="0.200000" d="M111.28,-458.4C112.4,-478.39 117.95,-525.3 145,-550 152.37,-556.73 162.21,-560.6 171.92,-562.78"/>
<polygon fill="#000000" fill-opacity="0.200000" stroke="#000000" stroke-width="2" stroke-opacity="0.200000" points="171.47,-564.83 177.74,-563.81 172.2,-560.69 171.47,-564.83"/>
</g>
<!-- src/utils.js -->
<g id="node11" class="node">
<title>src/utils.js</title>
<g id="a_node11"><a xlink:href="src/utils.js" xlink:title="utils.js">
<path fill="#ffffcc" stroke="black" d="M230,-626C230,-626 188,-626 188,-626 185,-626 182,-623 182,-620 182,-620 182,-614 182,-614 182,-611 185,-608 188,-608 188,-608 230,-608 230,-608 233,-608 236,-611 236,-614 236,-614 236,-620 236,-620 236,-623 233,-626 230,-626"/>
<text text-anchor="start" x="196" y="-614.8" font-family="Helvetica,sans-Serif" font-size="9.00">utils.js</text>
</a>
</g>
</g>
<!-- src/app.jsx&#45;&gt;src/utils.js -->
<g id="edge6" class="edge">
<title>src/app.jsx&#45;&gt;src/utils.js</title>
<path fill="none" stroke="#000000" stroke-width="2" stroke-opacity="0.200000" d="M111.77,-458.4C114.45,-488.58 124.3,-582.27 145,-603 152.35,-610.36 162.65,-614.22 172.8,-616.16"/>
<polygon fill="#000000" fill-opacity="0.200000" stroke="#000000" stroke-width="2" stroke-opacity="0.200000" points="172.36,-618.22 178.6,-616.98 172.95,-614.06 172.36,-618.22"/>
</g>
<!-- src/components/books&#45;container/books&#45;container.jsx&#45;&gt;@/context -->
<g id="edge8" class="edge">
<title>src/components/books&#45;container/books&#45;container.jsx&#45;&gt;@/context</title>
<path fill="none" stroke="#000000" stroke-width="2" stroke-opacity="0.200000" d="M253.51,-293.61C254.78,-292.53 255.95,-291.33 257,-290 272.1,-270.9 250.15,-90.3 265,-71 293.26,-34.27 349.33,-25.7 386.12,-24.3"/>
<polygon fill="#000000" fill-opacity="0.200000" stroke="#000000" stroke-width="2" stroke-opacity="0.200000" points="386.05,-26.4 392,-24.16 385.95,-22.2 386.05,-26.4"/>
</g>
<!-- src/components/books&#45;container/books&#45;container.jsx&#45;&gt;@/schema/mutations -->
<g id="edge9" class="edge">
<title>src/components/books&#45;container/books&#45;container.jsx&#45;&gt;@/schema/mutations</title>
<path fill="none" stroke="#000000" stroke-width="2" stroke-opacity="0.200000" d="M250.83,-293.68C252.99,-292.59 255.06,-291.37 257,-290 328.44,-239.61 309.7,-192.29 370,-129 378.87,-119.69 390.02,-110.76 399.66,-103.71"/>
<polygon fill="#000000" fill-opacity="0.200000" stroke="#000000" stroke-width="2" stroke-opacity="0.200000" points="400.87,-105.43 404.54,-100.25 398.44,-102.01 400.87,-105.43"/>
</g>
<!-- src/components/books&#45;container/books&#45;container.jsx&#45;&gt;@/schema/queries -->
<g id="edge10" class="edge">
<title>src/components/books&#45;container/books&#45;container.jsx&#45;&gt;@/schema/queries</title>
<path fill="none" stroke="#000000" stroke-width="2" stroke-opacity="0.200000" d="M253.48,-293.59C254.76,-292.51 255.94,-291.32 257,-290 277.91,-263.98 248.08,-168.78 265,-140 290.69,-96.29 348.7,-75.23 386.42,-65.81"/>
<polygon fill="#000000" fill-opacity="0.200000" stroke="#000000" stroke-width="2" stroke-opacity="0.200000" points="386.77,-67.88 392.13,-64.46 385.81,-63.8 386.77,-67.88"/>
</g>
<!-- src/components/books&#45;container/book&#45;card.jsx -->
<g id="node12" class="node">
<title>src/components/books&#45;container/book&#45;card.jsx</title>
<g id="a_node12"><a xlink:href="src/components/books-container/book-card.jsx" xlink:title="book&#45;card.jsx">
<path fill="#ffff77" stroke="black" d="M344.5,-312C344.5,-312 285.5,-312 285.5,-312 282.5,-312 279.5,-309 279.5,-306 279.5,-306 279.5,-300 279.5,-300 279.5,-297 282.5,-294 285.5,-294 285.5,-294 344.5,-294 344.5,-294 347.5,-294 350.5,-297 350.5,-300 350.5,-300 350.5,-306 350.5,-306 350.5,-309 347.5,-312 344.5,-312"/>
<text text-anchor="start" x="287.5" y="-300.8" font-family="Helvetica,sans-Serif" font-size="9.00">book&#45;card.jsx</text>
</a>
</g>
</g>
<!-- src/components/books&#45;container/books&#45;container.jsx&#45;&gt;src/components/books&#45;container/book&#45;card.jsx -->
<g id="edge7" class="edge">
<title>src/components/books&#45;container/books&#45;container.jsx&#45;&gt;src/components/books&#45;container/book&#45;card.jsx</title>
<path fill="none" stroke="#000000" stroke-width="2" stroke-opacity="0.200000" d="M257.43,-303C261.65,-303 265.9,-303 270.08,-303"/>
<polygon fill="#000000" fill-opacity="0.200000" stroke="#000000" stroke-width="2" stroke-opacity="0.200000" points="270.05,-305.1 276.05,-303 270.05,-300.9 270.05,-305.1"/>
</g>
<!-- src/components/header/header.jsx&#45;&gt;@/context -->
<g id="edge13" class="edge">
<title>src/components/header/header.jsx&#45;&gt;@/context</title>
<path fill="none" stroke="#000000" stroke-width="2" stroke-opacity="0.200000" d="M220.58,-387.87C231.64,-377.66 248.56,-360.03 257,-341 267.55,-317.21 258.02,-308.07 265,-283 268.96,-268.78 358.86,-48.67 370,-39 374.81,-34.82 380.75,-31.88 386.87,-29.81"/>
<polygon fill="#000000" fill-opacity="0.200000" stroke="#000000" stroke-width="2" stroke-opacity="0.200000" points="387.09,-31.93 392.31,-28.3 385.97,-27.88 387.09,-31.93"/>
</g>
<!-- src/components/header/register&#45;login/register&#45;login.jsx -->
<g id="node14" class="node">
<title>src/components/header/register&#45;login/register&#45;login.jsx</title>
<g id="a_node14"><a xlink:href="src/components/header/register-login/register-login.jsx" xlink:title="register&#45;login.jsx">
<path fill="#ffff77" stroke="black" d="M351,-380C351,-380 279,-380 279,-380 276,-380 273,-377 273,-374 273,-374 273,-368 273,-368 273,-365 276,-362 279,-362 279,-362 351,-362 351,-362 354,-362 357,-365 357,-368 357,-368 357,-374 357,-374 357,-377 354,-380 351,-380"/>
<text text-anchor="start" x="281" y="-368.8" font-family="Helvetica,sans-Serif" font-size="9.00">register&#45;login.jsx</text>
</a>
</g>
</g>
<!-- src/components/header/header.jsx&#45;&gt;src/components/header/register&#45;login/register&#45;login.jsx -->
<g id="edge11" class="edge">
<title>src/components/header/header.jsx&#45;&gt;src/components/header/register&#45;login/register&#45;login.jsx</title>
<path fill="none" stroke="#000000" stroke-width="2" stroke-opacity="0.200000" d="M238.97,-389.76C247.9,-387.53 257.95,-385.01 267.74,-382.57"/>
<polygon fill="#000000" fill-opacity="0.200000" stroke="#000000" stroke-width="2" stroke-opacity="0.200000" points="267.98,-384.67 273.3,-381.18 266.97,-380.59 267.98,-384.67"/>
</g>
<!-- src/components/header/search&#45;bar.jsx -->
<g id="node15" class="node">
<title>src/components/header/search&#45;bar.jsx</title>
<g id="a_node15"><a xlink:href="src/components/header/search-bar.jsx" xlink:title="search&#45;bar.jsx">
<path fill="#ffff77" stroke="black" d="M346,-432C346,-432 284,-432 284,-432 281,-432 278,-429 278,-426 278,-426 278,-420 278,-420 278,-417 281,-414 284,-414 284,-414 346,-414 346,-414 349,-414 352,-417 352,-420 352,-420 352,-426 352,-426 352,-429 349,-432 346,-432"/>
<text text-anchor="start" x="286" y="-420.8" font-family="Helvetica,sans-Serif" font-size="9.00">search&#45;bar.jsx</text>
</a>
</g>
</g>
<!-- src/components/header/header.jsx&#45;&gt;src/components/header/search&#45;bar.jsx -->
<g id="edge12" class="edge">
<title>src/components/header/header.jsx&#45;&gt;src/components/header/search&#45;bar.jsx</title>
<path fill="none" stroke="#000000" stroke-width="2" stroke-opacity="0.200000" d="M238.97,-404.24C248.36,-406.59 259.01,-409.25 269.27,-411.82"/>
<polygon fill="#000000" fill-opacity="0.200000" stroke="#000000" stroke-width="2" stroke-opacity="0.200000" points="268.5,-413.79 274.83,-413.21 269.51,-409.71 268.5,-413.79"/>
</g>
<!-- src/components/error.jsx -->
<g id="node13" class="node">
<title>src/components/error.jsx</title>
<g id="a_node13"><a xlink:href="src/components/error.jsx" xlink:title="error.jsx">
<path fill="#ccffcc" stroke="black" d="M230,-278C230,-278 188,-278 188,-278 185,-278 182,-275 182,-272 182,-272 182,-266 182,-266 182,-263 185,-260 188,-260 188,-260 230,-260 230,-260 233,-260 236,-263 236,-266 236,-266 236,-272 236,-272 236,-275 233,-278 230,-278"/>
<text text-anchor="start" x="192" y="-266.8" font-family="Helvetica,sans-Serif" font-size="9.00">error.jsx</text>
</a>
</g>
</g>
<!-- src/components/header/register&#45;login/register&#45;login.jsx&#45;&gt;@/components/error -->
<g id="edge15" class="edge">
<title>src/components/header/register&#45;login/register&#45;login.jsx&#45;&gt;@/components/error</title>
<path fill="none" stroke="#000000" stroke-width="2" stroke-opacity="0.200000" d="M334.21,-361.72C342.64,-356.61 352.16,-349.57 358.5,-341 399.28,-285.84 414.52,-202.94 419.44,-166.85"/>
<polygon fill="#000000" fill-opacity="0.200000" stroke="#000000" stroke-width="2" stroke-opacity="0.200000" points="421.47,-167.57 420.14,-161.35 417.3,-167.03 421.47,-167.57"/>
</g>
<!-- src/components/header/register&#45;login/register&#45;login.jsx&#45;&gt;@/schema/mutations -->
<g id="edge16" class="edge">
<title>src/components/header/register&#45;login/register&#45;login.jsx&#45;&gt;@/schema/mutations</title>
<path fill="none" stroke="#000000" stroke-width="2" stroke-opacity="0.200000" d="M336.57,-361.6C344.86,-356.7 353.6,-349.85 358.5,-341 381.33,-299.71 348.12,-170.8 370,-129 375.55,-118.4 385.3,-109.73 394.84,-103.2"/>
<polygon fill="#000000" fill-opacity="0.200000" stroke="#000000" stroke-width="2" stroke-opacity="0.200000" points="395.85,-105.05 399.8,-100.06 393.61,-101.5 395.85,-105.05"/>
</g>
<!-- src/components/header/register&#45;login/register&#45;login&#45;form.jsx -->
<g id="node16" class="node">
<title>src/components/header/register&#45;login/register&#45;login&#45;form.jsx</title>
<g id="a_node16"><a xlink:href="src/components/header/register-login/register-login-form.jsx" xlink:title="register&#45;login&#45;form.jsx">
<path fill="#ffff77" stroke="black" d="M469,-380C469,-380 376,-380 376,-380 373,-380 370,-377 370,-374 370,-374 370,-368 370,-368 370,-365 373,-362 376,-362 376,-362 469,-362 469,-362 472,-362 475,-365 475,-368 475,-368 475,-374 475,-374 475,-377 472,-380 469,-380"/>
<text text-anchor="start" x="378" y="-368.8" font-family="Helvetica,sans-Serif" font-size="9.00">register&#45;login&#45;form.jsx</text>
</a>
</g>
</g>
<!-- src/components/header/register&#45;login/register&#45;login.jsx&#45;&gt;src/components/header/register&#45;login/register&#45;login&#45;form.jsx -->
<g id="edge14" class="edge">
<title>src/components/header/register&#45;login/register&#45;login.jsx&#45;&gt;src/components/header/register&#45;login/register&#45;login&#45;form.jsx</title>
<path fill="none" stroke="#000000" stroke-width="2" stroke-opacity="0.200000" d="M357.39,-371C358.53,-371 359.67,-371 360.82,-371"/>
<polygon fill="#000000" fill-opacity="0.200000" stroke="#000000" stroke-width="2" stroke-opacity="0.200000" points="360.67,-373.1 366.67,-371 360.67,-368.9 360.67,-373.1"/>
</g>
<!-- src/main.jsx -->
<g id="node17" class="node">
<title>src/main.jsx</title>
<g id="a_node17"><a xlink:href="src/main.jsx" xlink:title="main.jsx">
<path fill="#ffff77" stroke="black" d="M64,-458C64,-458 22,-458 22,-458 19,-458 16,-455 16,-452 16,-452 16,-446 16,-446 16,-443 19,-440 22,-440 22,-440 64,-440 64,-440 67,-440 70,-443 70,-446 70,-446 70,-452 70,-452 70,-455 67,-458 64,-458"/>
<text text-anchor="start" x="26" y="-446.8" font-family="Helvetica,sans-Serif" font-size="9.00">main.jsx</text>
</a>
</g>
</g>
<!-- src/main.jsx&#45;&gt;src/app.jsx -->
<g id="edge17" class="edge">
<title>src/main.jsx&#45;&gt;src/app.jsx</title>
<path fill="none" stroke="#000000" stroke-width="2" stroke-opacity="0.200000" d="M70.44,-449C71.58,-449 72.74,-449 73.9,-449"/>
<polygon fill="#000000" fill-opacity="0.200000" stroke="#000000" stroke-width="2" stroke-opacity="0.200000" points="73.77,-451.1 79.77,-449 73.77,-446.9 73.77,-451.1"/>
</g>
<!-- src/schema/mutations.js -->
<g id="node18" class="node">
<title>src/schema/mutations.js</title>
<g id="a_node18"><a xlink:href="src/schema/mutations.js" xlink:title="mutations.js">
<path fill="#ccffcc" stroke="black" d="M235.5,-544C235.5,-544 182.5,-544 182.5,-544 179.5,-544 176.5,-541 176.5,-538 176.5,-538 176.5,-532 176.5,-532 176.5,-529 179.5,-526 182.5,-526 182.5,-526 235.5,-526 235.5,-526 238.5,-526 241.5,-529 241.5,-532 241.5,-532 241.5,-538 241.5,-538 241.5,-541 238.5,-544 235.5,-544"/>
<text text-anchor="start" x="184.5" y="-532.8" font-family="Helvetica,sans-Serif" font-size="9.00">mutations.js</text>
</a>
</g>
</g>
</g>
</svg>
