<?xml version="1.0" encoding="UTF-8" standalone="no"?>
<!DOCTYPE svg PUBLIC "-//W3C//DTD SVG 1.1//EN"
 "http://www.w3.org/Graphics/SVG/1.1/DTD/svg11.dtd">
<!-- Generated by graphviz version 7.1.0 (20230121.1956)
 -->
<!-- Title: dependency&#45;cruiser output Pages: 1 -->
<svg width="634pt" height="236pt"
 viewBox="0.00 0.00 634.00 236.00" xmlns="http://www.w3.org/2000/svg" xmlns:xlink="http://www.w3.org/1999/xlink">
<g id="graph0" class="graph" transform="scale(1 1) rotate(0) translate(4 232)">
<title>dependency&#45;cruiser output</title>
<polygon fill="white" stroke="none" points="-4,4 -4,-232 630,-232 630,4 -4,4"/>
<g id="clust1" class="cluster">
<title>cluster_app</title>
<path fill="#ffffff" stroke="black" stroke-width="2" d="M20,-26C20,-26 606,-26 606,-26 612,-26 618,-32 618,-38 618,-38 618,-208 618,-208 618,-214 612,-220 606,-220 606,-220 20,-220 20,-220 14,-220 8,-214 8,-208 8,-208 8,-38 8,-38 8,-32 14,-26 20,-26"/>
<text text-anchor="middle" x="313" y="-208.8" font-family="Helvetica,sans-Serif" font-weight="bold" font-size="9.00">app</text>
</g>
<g id="clust2" class="cluster">
<title>cluster_app/book</title>
<path fill="#ffffff" stroke="black" stroke-width="2" d="M413,-34C413,-34 536,-34 536,-34 542,-34 548,-40 548,-46 548,-46 548,-74 548,-74 548,-80 542,-86 536,-86 536,-86 413,-86 413,-86 407,-86 401,-80 401,-74 401,-74 401,-46 401,-46 401,-40 407,-34 413,-34"/>
<text text-anchor="middle" x="474.5" y="-74.8" font-family="Helvetica,sans-Serif" font-weight="bold" font-size="9.00">book</text>
</g>
<g id="clust3" class="cluster">
<title>cluster_app/graphql</title>
<path fill="#ffffff" stroke="black" stroke-width="2" d="M169,-58C169,-58 301,-58 301,-58 307,-58 313,-64 313,-70 313,-70 313,-128 313,-128 313,-134 307,-140 301,-140 301,-140 169,-140 169,-140 163,-140 157,-134 157,-128 157,-128 157,-70 157,-70 157,-64 163,-58 169,-58"/>
<text text-anchor="middle" x="235" y="-128.8" font-family="Helvetica,sans-Serif" font-weight="bold" font-size="9.00">graphql</text>
</g>
<g id="clust4" class="cluster">
<title>cluster_app/user</title>
<path fill="#ffffff" stroke="black" stroke-width="2" d="M333,-104C333,-104 464,-104 464,-104 470,-104 476,-110 476,-116 476,-116 476,-144 476,-144 476,-150 470,-156 464,-156 464,-156 333,-156 333,-156 327,-156 321,-150 321,-144 321,-144 321,-116 321,-116 321,-110 327,-104 333,-104"/>
<text text-anchor="middle" x="398.5" y="-144.8" font-family="Helvetica,sans-Serif" font-weight="bold" font-size="9.00">user</text>
</g>
<!-- app/book/controller.js -->
<g id="node1" class="node">
<title>app/book/controller.js</title>
<g id="a_node1"><a xlink:href="app/book/controller.js" xlink:title="controller.js">
<path fill="#ffffcc" stroke="black" d="M467,-60C467,-60 415,-60 415,-60 412,-60 409,-57 409,-54 409,-54 409,-48 409,-48 409,-45 412,-42 415,-42 415,-42 467,-42 467,-42 470,-42 473,-45 473,-48 473,-48 473,-54 473,-54 473,-57 470,-60 467,-60"/>
<text text-anchor="start" x="417" y="-48.8" font-family="Helvetica,sans-Serif" font-size="9.00">controller.js</text>
</a>
</g>
</g>
<!-- app/utils.js -->
<g id="node2" class="node">
<title>app/utils.js</title>
<g id="a_node2"><a xlink:href="app/utils.js" xlink:title="utils.js">
<path fill="#ffffcc" stroke="black" d="M534,-121C534,-121 492,-121 492,-121 489,-121 486,-118 486,-115 486,-115 486,-109 486,-109 486,-106 489,-103 492,-103 492,-103 534,-103 534,-103 537,-103 540,-106 540,-109 540,-109 540,-115 540,-115 540,-118 537,-121 534,-121"/>
<text text-anchor="start" x="500" y="-109.8" font-family="Helvetica,sans-Serif" font-size="9.00">utils.js</text>
</a>
</g>
</g>
<!-- app/book/controller.js&#45;&gt;app/utils.js -->
<g id="edge1" class="edge">
<title>app/book/controller.js&#45;&gt;app/utils.js</title>
<path fill="none" stroke="#000000" stroke-width="2" stroke-opacity="0.200000" d="M471.55,-60.4C473.15,-61.47 474.65,-62.67 476,-64 484.53,-72.4 479.11,-79.22 486,-89 487.88,-91.67 490.13,-94.24 492.51,-96.63"/>
<polygon fill="#000000" fill-opacity="0.200000" stroke="#000000" stroke-width="2" stroke-opacity="0.200000" points="490.85,-97.97 496.7,-100.46 493.68,-94.86 490.85,-97.97"/>
</g>
<!-- app/book/index.js -->
<g id="node3" class="node">
<title>app/book/index.js</title>
<g id="a_node3"><a xlink:href="app/book/index.js" xlink:title="index.js">
<path fill="#ffffcc" stroke="black" d="M534,-60C534,-60 492,-60 492,-60 489,-60 486,-57 486,-54 486,-54 486,-48 486,-48 486,-45 489,-42 492,-42 492,-42 534,-42 534,-42 537,-42 540,-45 540,-48 540,-48 540,-54 540,-54 540,-57 537,-60 534,-60"/>
<text text-anchor="start" x="497" y="-48.8" font-family="Helvetica,sans-Serif" font-size="9.00">index.js</text>
</a>
</g>
</g>
<!-- app/book/controller.js&#45;&gt;app/book/index.js -->
<g id="edge2" class="edge">
<title>app/book/controller.js&#45;&gt;app/book/index.js</title>
<path fill="none" stroke="#000000" stroke-width="2" stroke-opacity="0.200000" d="M473.31,-51C474.46,-51 475.61,-51 476.77,-51"/>
<polygon fill="#000000" fill-opacity="0.200000" stroke="#000000" stroke-width="2" stroke-opacity="0.200000" points="476.5,-53.1 482.5,-51 476.5,-48.9 476.5,-53.1"/>
</g>
<!-- app/config.js -->
<g id="node4" class="node">
<title>app/config.js</title>
<g id="a_node4"><a xlink:href="app/config.js" xlink:title="config.js">
<path fill="#ffffcc" stroke="black" d="M604,-174C604,-174 562,-174 562,-174 559,-174 556,-171 556,-168 556,-168 556,-162 556,-162 556,-159 559,-156 562,-156 562,-156 604,-156 604,-156 607,-156 610,-159 610,-162 610,-162 610,-168 610,-168 610,-171 607,-174 604,-174"/>
<text text-anchor="start" x="566" y="-162.8" font-family="Helvetica,sans-Serif" font-size="9.00">config.js</text>
</a>
</g>
</g>
<!-- app/utils.js&#45;&gt;app/config.js -->
<g id="edge19" class="edge">
<title>app/utils.js&#45;&gt;app/config.js</title>
<path fill="none" stroke="#000000" stroke-width="2" stroke-opacity="0.200000" d="M526.16,-121.48C536.41,-129.46 551.25,-141.03 563.06,-150.24"/>
<polygon fill="#000000" fill-opacity="0.200000" stroke="#000000" stroke-width="2" stroke-opacity="0.200000" points="561.54,-151.71 567.56,-153.75 564.12,-148.4 561.54,-151.71"/>
</g>
<!-- app/db&#45;conn.js -->
<g id="node5" class="node">
<title>app/db&#45;conn.js</title>
<g id="a_node5"><a xlink:href="app/db-conn.js" xlink:title="db&#45;conn.js">
<path fill="#ffffcc" stroke="black" d="M136,-194C136,-194 89,-194 89,-194 86,-194 83,-191 83,-188 83,-188 83,-182 83,-182 83,-179 86,-176 89,-176 89,-176 136,-176 136,-176 139,-176 142,-179 142,-182 142,-182 142,-188 142,-188 142,-191 139,-194 136,-194"/>
<text text-anchor="start" x="91" y="-182.8" font-family="Helvetica,sans-Serif" font-size="9.00">db&#45;conn.js</text>
</a>
</g>
</g>
<!-- app/db&#45;conn.js&#45;&gt;app/config.js -->
<g id="edge3" class="edge">
<title>app/db&#45;conn.js&#45;&gt;app/config.js</title>
<path fill="none" stroke="#000000" stroke-width="2" stroke-opacity="0.200000" d="M142.49,-187.34C174.35,-189.7 227.03,-193 272.5,-193 272.5,-193 272.5,-193 442,-193 489.64,-193 501.77,-188.54 548,-177 548.09,-176.98 548.18,-176.95 548.27,-176.93"/>
<polygon fill="#000000" fill-opacity="0.200000" stroke="#000000" stroke-width="2" stroke-opacity="0.200000" points="548.81,-178.96 554,-175.29 547.66,-174.92 548.81,-178.96"/>
</g>
<!-- app/graphql/index.js -->
<g id="node6" class="node">
<title>app/graphql/index.js</title>
<g id="a_node6"><a xlink:href="app/graphql/index.js" xlink:title="index.js">
<path fill="#ffffcc" stroke="black" d="M213,-114C213,-114 171,-114 171,-114 168,-114 165,-111 165,-108 165,-108 165,-102 165,-102 165,-99 168,-96 171,-96 171,-96 213,-96 213,-96 216,-96 219,-99 219,-102 219,-102 219,-108 219,-108 219,-111 216,-114 213,-114"/>
<text text-anchor="start" x="176" y="-102.8" font-family="Helvetica,sans-Serif" font-size="9.00">index.js</text>
</a>
</g>
</g>
<!-- app/graphql/resolvers.js -->
<g id="node7" class="node">
<title>app/graphql/resolvers.js</title>
<g id="a_node7"><a xlink:href="app/graphql/resolvers.js" xlink:title="resolvers.js">
<path fill="#ffffcc" stroke="black" d="M299,-84C299,-84 248,-84 248,-84 245,-84 242,-81 242,-78 242,-78 242,-72 242,-72 242,-69 245,-66 248,-66 248,-66 299,-66 299,-66 302,-66 305,-69 305,-72 305,-72 305,-78 305,-78 305,-81 302,-84 299,-84"/>
<text text-anchor="start" x="250" y="-72.8" font-family="Helvetica,sans-Serif" font-size="9.00">resolvers.js</text>
</a>
</g>
</g>
<!-- app/graphql/index.js&#45;&gt;app/graphql/resolvers.js -->
<g id="edge4" class="edge">
<title>app/graphql/index.js&#45;&gt;app/graphql/resolvers.js</title>
<path fill="none" stroke="#000000" stroke-width="2" stroke-opacity="0.200000" d="M218.15,-95.51C224.89,-92.97 232.27,-90.18 239.37,-87.5"/>
<polygon fill="#000000" fill-opacity="0.200000" stroke="#000000" stroke-width="2" stroke-opacity="0.200000" points="239.81,-89.58 244.68,-85.5 238.32,-85.65 239.81,-89.58"/>
</g>
<!-- app/graphql/type&#45;defs.js -->
<g id="node8" class="node">
<title>app/graphql/type&#45;defs.js</title>
<g id="a_node8"><a xlink:href="app/graphql/type-defs.js" xlink:title="type&#45;defs.js">
<path fill="#ffffcc" stroke="black" d="M299,-114C299,-114 248,-114 248,-114 245,-114 242,-111 242,-108 242,-108 242,-102 242,-102 242,-99 245,-96 248,-96 248,-96 299,-96 299,-96 302,-96 305,-99 305,-102 305,-102 305,-108 305,-108 305,-111 302,-114 299,-114"/>
<text text-anchor="start" x="250" y="-102.8" font-family="Helvetica,sans-Serif" font-size="9.00">type&#45;defs.js</text>
</a>
</g>
</g>
<!-- app/graphql/index.js&#45;&gt;app/graphql/type&#45;defs.js -->
<g id="edge5" class="edge">
<title>app/graphql/index.js&#45;&gt;app/graphql/type&#45;defs.js</title>
<path fill="none" stroke="#000000" stroke-width="2" stroke-opacity="0.200000" d="M219.47,-105C223.82,-105 228.41,-105 232.99,-105"/>
<polygon fill="#000000" fill-opacity="0.200000" stroke="#000000" stroke-width="2" stroke-opacity="0.200000" points="232.71,-107.1 238.71,-105 232.71,-102.9 232.71,-107.1"/>
</g>
<!-- app/graphql/resolvers.js&#45;&gt;app/book/controller.js -->
<g id="edge6" class="edge">
<title>app/graphql/resolvers.js&#45;&gt;app/book/controller.js</title>
<path fill="none" stroke="#000000" stroke-width="2" stroke-opacity="0.200000" d="M305.26,-70.34C310.51,-69.55 315.91,-68.75 321,-68 347.25,-64.15 376.77,-59.93 399.85,-56.66"/>
<polygon fill="#000000" fill-opacity="0.200000" stroke="#000000" stroke-width="2" stroke-opacity="0.200000" points="400.03,-58.75 405.67,-55.83 399.44,-54.6 400.03,-58.75"/>
</g>
<!-- app/graphql/resolvers.js&#45;&gt;app/utils.js -->
<g id="edge8" class="edge">
<title>app/graphql/resolvers.js&#45;&gt;app/utils.js</title>
<path fill="none" stroke="#000000" stroke-width="2" stroke-opacity="0.200000" d="M305.43,-78.35C353.57,-83.66 444.19,-94.14 476,-101 476.4,-101.09 476.8,-101.17 477.2,-101.27"/>
<polygon fill="#000000" fill-opacity="0.200000" stroke="#000000" stroke-width="2" stroke-opacity="0.200000" points="476.52,-103.26 482.85,-102.69 477.55,-99.19 476.52,-103.26"/>
</g>
<!-- app/user/controller.js -->
<g id="node9" class="node">
<title>app/user/controller.js</title>
<g id="a_node9"><a xlink:href="app/user/controller.js" xlink:title="controller.js">
<path fill="#ffffcc" stroke="black" d="M387,-130C387,-130 335,-130 335,-130 332,-130 329,-127 329,-124 329,-124 329,-118 329,-118 329,-115 332,-112 335,-112 335,-112 387,-112 387,-112 390,-112 393,-115 393,-118 393,-118 393,-124 393,-124 393,-127 390,-130 387,-130"/>
<text text-anchor="start" x="337" y="-118.8" font-family="Helvetica,sans-Serif" font-size="9.00">controller.js</text>
</a>
</g>
</g>
<!-- app/graphql/resolvers.js&#45;&gt;app/user/controller.js -->
<g id="edge7" class="edge">
<title>app/graphql/resolvers.js&#45;&gt;app/user/controller.js</title>
<path fill="none" stroke="#000000" stroke-width="2" stroke-opacity="0.200000" d="M305.28,-84.34C308.08,-85.95 310.72,-87.82 313,-90 319.33,-96.04 314.52,-102.12 321,-108 321.15,-108.13 321.29,-108.26 321.44,-108.39"/>
<polygon fill="#000000" fill-opacity="0.200000" stroke="#000000" stroke-width="2" stroke-opacity="0.200000" points="320.18,-110.07 326.33,-111.68 322.52,-106.59 320.18,-110.07"/>
</g>
<!-- app/user/index.js -->
<g id="node14" class="node">
<title>app/user/index.js</title>
<g id="a_node14"><a xlink:href="app/user/index.js" xlink:title="index.js">
<path fill="#ffffcc" stroke="black" d="M462,-130C462,-130 420,-130 420,-130 417,-130 414,-127 414,-124 414,-124 414,-118 414,-118 414,-115 417,-112 420,-112 420,-112 462,-112 462,-112 465,-112 468,-115 468,-118 468,-118 468,-124 468,-124 468,-127 465,-130 462,-130"/>
<text text-anchor="start" x="425" y="-118.8" font-family="Helvetica,sans-Serif" font-size="9.00">index.js</text>
</a>
</g>
</g>
<!-- app/user/controller.js&#45;&gt;app/user/index.js -->
<g id="edge16" class="edge">
<title>app/user/controller.js&#45;&gt;app/user/index.js</title>
<path fill="none" stroke="#000000" stroke-width="2" stroke-opacity="0.200000" d="M393.28,-121C397.09,-121 401.01,-121 404.87,-121"/>
<polygon fill="#000000" fill-opacity="0.200000" stroke="#000000" stroke-width="2" stroke-opacity="0.200000" points="404.7,-123.1 410.7,-121 404.7,-118.9 404.7,-123.1"/>
</g>
<!-- app/index.js -->
<g id="node10" class="node">
<title>app/index.js</title>
<g id="a_node10"><a xlink:href="app/index.js" xlink:title="index.js">
<path fill="#ffffcc" stroke="black" d="M64,-179C64,-179 22,-179 22,-179 19,-179 16,-176 16,-173 16,-173 16,-167 16,-167 16,-164 19,-161 22,-161 22,-161 64,-161 64,-161 67,-161 70,-164 70,-167 70,-167 70,-173 70,-173 70,-176 67,-179 64,-179"/>
<text text-anchor="start" x="27" y="-167.8" font-family="Helvetica,sans-Serif" font-size="9.00">index.js</text>
</a>
</g>
</g>
<!-- app/index.js&#45;&gt;app/db&#45;conn.js -->
<g id="edge9" class="edge">
<title>app/index.js&#45;&gt;app/db&#45;conn.js</title>
<path fill="none" stroke="#000000" stroke-width="2" stroke-opacity="0.200000" d="M70.29,-175.84C71.59,-176.13 72.9,-176.42 74.22,-176.71"/>
<polygon fill="#000000" fill-opacity="0.200000" stroke="#000000" stroke-width="2" stroke-opacity="0.200000" points="73.67,-178.74 79.98,-178 74.58,-174.64 73.67,-178.74"/>
</g>
<!-- app/server.js -->
<g id="node11" class="node">
<title>app/server.js</title>
<g id="a_node11"><a xlink:href="app/server.js" xlink:title="server.js">
<path fill="#ffffcc" stroke="black" d="M133.5,-164C133.5,-164 91.5,-164 91.5,-164 88.5,-164 85.5,-161 85.5,-158 85.5,-158 85.5,-152 85.5,-152 85.5,-149 88.5,-146 91.5,-146 91.5,-146 133.5,-146 133.5,-146 136.5,-146 139.5,-149 139.5,-152 139.5,-152 139.5,-158 139.5,-158 139.5,-161 136.5,-164 133.5,-164"/>
<text text-anchor="start" x="95" y="-152.8" font-family="Helvetica,sans-Serif" font-size="9.00">server.js</text>
</a>
</g>
</g>
<!-- app/index.js&#45;&gt;app/server.js -->
<g id="edge10" class="edge">
<title>app/index.js&#45;&gt;app/server.js</title>
<path fill="none" stroke="#000000" stroke-width="2" stroke-opacity="0.200000" d="M70.29,-164.16C72.43,-163.68 74.61,-163.2 76.79,-162.71"/>
<polygon fill="#000000" fill-opacity="0.200000" stroke="#000000" stroke-width="2" stroke-opacity="0.200000" points="76.81,-164.86 82.22,-161.51 75.9,-160.76 76.81,-164.86"/>
</g>
<!-- app/server.js&#45;&gt;app/config.js -->
<g id="edge12" class="edge">
<title>app/server.js&#45;&gt;app/config.js</title>
<path fill="none" stroke="#000000" stroke-width="2" stroke-opacity="0.200000" d="M132.91,-164.5C139.74,-167.42 147.56,-170.3 155,-172 206.01,-183.63 220.19,-179 272.5,-179 272.5,-179 272.5,-179 442,-179 477.82,-179 518.53,-174.41 546.79,-170.48"/>
<polygon fill="#000000" fill-opacity="0.200000" stroke="#000000" stroke-width="2" stroke-opacity="0.200000" points="546.86,-172.59 552.5,-169.67 546.27,-168.44 546.86,-172.59"/>
</g>
<!-- app/server.js&#45;&gt;app/graphql/index.js -->
<g id="edge13" class="edge">
<title>app/server.js&#45;&gt;app/graphql/index.js</title>
<path fill="none" stroke="#000000" stroke-width="2" stroke-opacity="0.200000" d="M121.93,-145.68C129.81,-137.45 142.23,-125.61 155,-118 155.46,-117.72 155.93,-117.45 156.41,-117.18"/>
<polygon fill="#000000" fill-opacity="0.200000" stroke="#000000" stroke-width="2" stroke-opacity="0.200000" points="157.31,-119.08 161.79,-114.57 155.47,-115.31 157.31,-119.08"/>
</g>
<!-- app/middleware.js -->
<g id="node12" class="node">
<title>app/middleware.js</title>
<g id="a_node12"><a xlink:href="app/middleware.js" xlink:title="middleware.js">
<path fill="#ffffcc" stroke="black" d="M223,-166C223,-166 161,-166 161,-166 158,-166 155,-163 155,-160 155,-160 155,-154 155,-154 155,-151 158,-148 161,-148 161,-148 223,-148 223,-148 226,-148 229,-151 229,-154 229,-154 229,-160 229,-160 229,-163 226,-166 223,-166"/>
<text text-anchor="start" x="163" y="-154.8" font-family="Helvetica,sans-Serif" font-size="9.00">middleware.js</text>
</a>
</g>
</g>
<!-- app/server.js&#45;&gt;app/middleware.js -->
<g id="edge14" class="edge">
<title>app/server.js&#45;&gt;app/middleware.js</title>
<path fill="none" stroke="#000000" stroke-width="2" stroke-opacity="0.200000" d="M139.74,-155.68C141.7,-155.73 143.71,-155.78 145.75,-155.83"/>
<polygon fill="#000000" fill-opacity="0.200000" stroke="#000000" stroke-width="2" stroke-opacity="0.200000" points="145.67,-157.93 151.73,-155.99 145.78,-153.73 145.67,-157.93"/>
</g>
<!-- http -->
<g id="node13" class="node">
<title>http</title>
<g id="a_node13"><a xlink:title="http">
<path fill="#ffffcc" stroke="grey" d="M213,-18C213,-18 171,-18 171,-18 168,-18 165,-15 165,-12 165,-12 165,-6 165,-6 165,-3 168,0 171,0 171,0 213,0 213,0 216,0 219,-3 219,-6 219,-6 219,-12 219,-12 219,-15 216,-18 213,-18"/>
<text text-anchor="middle" x="192" y="-6.8" font-family="Helvetica,sans-Serif" font-size="9.00" fill="grey">http</text>
</a>
</g>
</g>
<!-- app/server.js&#45;&gt;http -->
<g id="edge15" class="edge">
<title>app/server.js&#45;&gt;http</title>
<path fill="none" stroke="#000000" stroke-dasharray="5,2" stroke-opacity="0.200000" d="M116.48,-145.5C122.41,-127.25 136.7,-86.32 155,-55 161.48,-43.9 170.37,-32.52 177.69,-23.85"/>
<polygon fill="#000000" fill-opacity="0.200000" stroke="#000000" stroke-opacity="0.200000" points="179.15,-25.38 181.48,-19.47 175.97,-22.64 179.15,-25.38"/>
</g>
<!-- app/middleware.js&#45;&gt;app/config.js -->
<g id="edge11" class="edge">
<title>app/middleware.js&#45;&gt;app/config.js</title>
<path fill="none" stroke="#000000" stroke-width="2" stroke-opacity="0.200000" d="M229.46,-159.75C263.28,-162.07 315.01,-165 360,-165 360,-165 360,-165 442,-165 477.75,-165 518.63,-165 546.95,-165"/>
<polygon fill="#000000" fill-opacity="0.200000" stroke="#000000" stroke-width="2" stroke-opacity="0.200000" points="546.65,-167.1 552.65,-165 546.65,-162.9 546.65,-167.1"/>
</g>
<!-- app/user/index.js&#45;&gt;app/utils.js -->
<g id="edge18" class="edge">
<title>app/user/index.js&#45;&gt;app/utils.js</title>
<path fill="none" stroke="#000000" stroke-width="2" stroke-opacity="0.200000" d="M468.46,-117.6C471.33,-117.23 474.28,-116.85 477.22,-116.47"/>
<polygon fill="#000000" fill-opacity="0.200000" stroke="#000000" stroke-width="2" stroke-opacity="0.200000" points="477.28,-118.58 482.96,-115.73 476.74,-114.42 477.28,-118.58"/>
</g>
<!-- app/user/index.js&#45;&gt;app/config.js -->
<g id="edge17" class="edge">
<title>app/user/index.js&#45;&gt;app/config.js</title>
<path fill="none" stroke="#000000" stroke-width="2" stroke-opacity="0.200000" d="M468.33,-129.28C490.72,-136.31 523.04,-146.47 547.49,-154.15"/>
<polygon fill="#000000" fill-opacity="0.200000" stroke="#000000" stroke-width="2" stroke-opacity="0.200000" points="546.54,-156.06 552.9,-155.85 547.8,-152.05 546.54,-156.06"/>
</g>
</g>
</svg>
